<svg width="28" height="28" viewBox="0 0 28 28" fill="none" xmlns="http://www.w3.org/2000/svg">
<path d="M20.4167 20.4167C21.0355 20.4167 21.629 20.6625 22.0666 21.1001C22.5042 21.5377 22.75 22.1312 22.75 22.75C22.75 23.3688 22.5042 23.9623 22.0666 24.3999C21.629 24.8375 21.0355 25.0833 20.4167 25.0833C19.7978 25.0833 19.2043 24.8375 18.7668 24.3999C18.3292 23.9623 18.0833 23.3688 18.0833 22.75C18.0833 21.455 19.1217 20.4167 20.4167 20.4167ZM1.75 1.75H5.565L6.66167 4.08333H23.9167C24.2261 4.08333 24.5228 4.20625 24.7416 4.42504C24.9604 4.64383 25.0833 4.94058 25.0833 5.25C25.0833 5.44833 25.025 5.64667 24.9433 5.83333L20.7667 13.3817C20.37 14.0933 19.6 14.5833 18.725 14.5833H10.0333L8.98333 16.485L8.94833 16.625C8.94833 16.7024 8.97906 16.7765 9.03376 16.8312C9.08846 16.8859 9.16264 16.9167 9.24 16.9167H22.75V19.25H8.75C8.13116 19.25 7.53767 19.0042 7.10008 18.5666C6.6625 18.129 6.41667 17.5355 6.41667 16.9167C6.41667 16.5083 6.52167 16.1233 6.69667 15.7967L8.28333 12.9383L4.08333 4.08333H1.75V1.75ZM8.75 20.4167C9.36884 20.4167 9.96233 20.6625 10.3999 21.1001C10.8375 21.5377 11.0833 22.1312 11.0833 22.75C11.0833 23.3688 10.8375 23.9623 10.3999 24.3999C9.96233 24.8375 9.36884 25.0833 8.75 25.0833C8.13116 25.0833 7.53767 24.8375 7.10008 24.3999C6.6625 23.9623 6.41667 23.3688 6.41667 22.75C6.41667 21.455 7.455 20.4167 8.75 20.4167ZM19.25 12.25L22.4933 6.41667H7.74667L10.5 12.25H19.25Z" fill="white"/>
</svg>
